<?xml version="1.0" encoding="UTF-8"?>
<!DOCTYPE svg PUBLIC "-//W3C//DTD SVG 1.1//EN" "http://www.w3.org/Graphics/SVG/1.1/DTD/svg11.dtd">
<svg xmlns="http://www.w3.org/2000/svg" version="1.1" width="64px" height="64px" style="shape-rendering:geometricPrecision; text-rendering:geometricPrecision; image-rendering:optimizeQuality; fill-rule:evenodd; clip-rule:evenodd" xmlns:xlink="http://www.w3.org/1999/xlink">
<g><path style="opacity:0.999" fill="#597eb7" d="M 49.5,11.5 C 49.0618,11.4346 48.7284,11.6012 48.5,12C 49.7893,13.8022 51.4559,14.9688 53.5,15.5C 52.9056,17.8553 51.9056,20.022 50.5,22C 50.7355,22.8732 51.0688,23.7065 51.5,24.5C 53.4648,25.2922 55.4648,25.9588 57.5,26.5C 58.8333,29.8333 58.8333,33.1667 57.5,36.5C 54.9639,36.8444 52.7972,37.8444 51,39.5C 51.1794,42.0886 52.0128,44.5886 53.5,47C 52.2237,49.2806 50.5571,51.2806 48.5,53C 45.716,53.1998 43.216,52.3665 41,50.5C 40.1268,50.7355 39.2935,51.0688 38.5,51.5C 37.7078,53.4648 37.0412,55.4648 36.5,57.5C 33.1667,58.8333 29.8333,58.8333 26.5,57.5C 25.9588,55.4648 25.2922,53.4648 24.5,51.5C 23.7065,51.0688 22.8732,50.7355 22,50.5C 19.784,52.3665 17.284,53.1998 14.5,53C 12.4429,51.2806 10.7763,49.2806 9.5,47C 10.9872,44.5886 11.8206,42.0886 12,39.5C 10.2028,37.8444 8.03609,36.8444 5.5,36.5C 4.16667,33.1667 4.16667,29.8333 5.5,26.5C 7.53524,25.9588 9.53524,25.2922 11.5,24.5C 11.9312,23.7065 12.2645,22.8732 12.5,22C 10.6335,19.784 9.80019,17.284 10,14.5C 11.7194,12.4429 13.7194,10.7763 16,9.5C 18.4114,10.9872 20.9114,11.8206 23.5,12C 25.1556,10.2028 26.1556,8.03609 26.5,5.5C 29.8333,4.16667 33.1667,4.16667 36.5,5.5C 36.8444,8.03609 37.8444,10.2028 39.5,12C 42.0886,11.8206 44.5886,10.9872 47,9.5C 48.301,9.63874 49.1344,10.3054 49.5,11.5 Z M 34.5,19.5 C 36.2838,19.8925 37.9505,20.5592 39.5,21.5C 44.6063,26.8427 45.273,32.5094 41.5,38.5C 40.6082,35.7079 38.6082,34.3746 35.5,34.5C 35.5,34.1667 35.5,33.8333 35.5,33.5C 38.1448,30.5146 37.8115,27.6812 34.5,25C 30.5245,23.6206 27.6912,24.7873 26,28.5C 25.4014,30.5348 25.9014,32.2015 27.5,33.5C 27.5,33.8333 27.5,34.1667 27.5,34.5C 24.3918,34.3746 22.3918,35.7079 21.5,38.5C 16.6827,28.1311 20.0161,21.4645 31.5,18.5C 32.4168,19.1272 33.4168,19.4606 34.5,19.5 Z M 26.5,42.5 C 29.8333,42.5 33.1667,42.5 36.5,42.5C 35.0028,43.3058 33.3361,43.9724 31.5,44.5C 29.6639,43.9724 27.9972,43.3058 26.5,42.5 Z"/></g>
<g><path style="opacity:0.098" fill="#cad17b" d="M 49.5,11.5 C 51.1667,12.5 52.5,13.8333 53.5,15.5C 51.4559,14.9688 49.7893,13.8022 48.5,12C 48.7284,11.6012 49.0618,11.4346 49.5,11.5 Z"/></g>
<g><path style="opacity:0.122" fill="#8cdb57" d="M 34.5,19.5 C 36.8242,18.1674 38.4908,18.8341 39.5,21.5C 37.9505,20.5592 36.2838,19.8925 34.5,19.5 Z"/></g>
<g><path style="opacity:1" fill="#ff932f" d="M 35.5,33.5 C 32.8333,34.8333 30.1667,34.8333 27.5,33.5C 25.9014,32.2015 25.4014,30.5348 26,28.5C 27.6912,24.7873 30.5245,23.6206 34.5,25C 37.8115,27.6812 38.1448,30.5146 35.5,33.5 Z"/></g>
<g><path style="opacity:0.62" fill="#ff6bae" d="M 27.5,34.5 C 27.5,34.1667 27.5,33.8333 27.5,33.5C 30.1667,34.8333 32.8333,34.8333 35.5,33.5C 35.5,33.8333 35.5,34.1667 35.5,34.5C 34.8333,34.5 34.5,34.8333 34.5,35.5C 32.5,35.5 30.5,35.5 28.5,35.5C 28.5,34.8333 28.1667,34.5 27.5,34.5 Z"/></g>
<g><path style="opacity:1" fill="#ff9948" d="M 27.5,34.5 C 28.1667,34.5 28.5,34.8333 28.5,35.5C 30.5,36.8333 32.5,36.8333 34.5,35.5C 35.1667,35.5 35.5,35.1667 35.5,34.5C 38.6082,34.3746 40.6082,35.7079 41.5,38.5C 40.8333,38.5 40.5,38.8333 40.5,39.5C 39.8333,39.5 39.5,39.8333 39.5,40.5C 38.8333,40.5 38.5,40.8333 38.5,41.5C 37.5084,41.3284 36.8417,41.6618 36.5,42.5C 33.1667,42.5 29.8333,42.5 26.5,42.5C 26.1583,41.6618 25.4916,41.3284 24.5,41.5C 24.5,40.8333 24.1667,40.5 23.5,40.5C 23.5,39.8333 23.1667,39.5 22.5,39.5C 22.5,38.8333 22.1667,38.5 21.5,38.5C 22.3918,35.7079 24.3918,34.3746 27.5,34.5 Z"/></g>
</svg>
